<svg width="800" height="100" viewBox="0 0 800 100" fill="none" xmlns="http://www.w3.org/2000/svg">
<path d="M9.65454 44.5C7.98787 44.5 6.34204 44.3542 4.71704 44.0625C3.09204 43.7708 1.57121 43.375 0.154541 42.875L1.15454 39.1875C4.11287 40.0625 6.88371 40.5 9.46704 40.5C11.6754 40.5 13.2379 40.1875 14.1545 39.5625C15.1129 38.9375 15.592 38.0833 15.592 37C15.592 35.8333 15.092 34.9375 14.092 34.3125C13.1337 33.6458 11.6337 32.9583 9.59204 32.25C7.71704 31.5833 6.17537 30.9375 4.96704 30.3125C3.80037 29.6875 2.80037 28.8125 1.96704 27.6875C1.13371 26.5625 0.717041 25.125 0.717041 23.375C0.717041 21.8333 1.13371 20.4792 1.96704 19.3125C2.84204 18.1042 4.07121 17.1667 5.65454 16.5C7.23787 15.8333 9.11287 15.5 11.2795 15.5C13.9462 15.5 16.5712 15.8542 19.1545 16.5625L18.342 20.375C16.1337 19.7917 13.8629 19.5 11.5295 19.5C9.23787 19.5 7.63371 19.8333 6.71704 20.5C5.80037 21.1667 5.34204 22.0417 5.34204 23.125C5.34204 24.3333 5.82121 25.25 6.77954 25.875C7.77954 26.5 9.34204 27.1875 11.467 27.9375C13.342 28.5625 14.842 29.1667 15.967 29.75C17.1337 30.3333 18.1337 31.1667 18.967 32.25C19.8004 33.3333 20.217 34.75 20.217 36.5C20.217 38.25 19.7379 39.7292 18.7795 40.9375C17.8629 42.1458 16.6129 43.0417 15.0295 43.625C13.4462 44.2083 11.6545 44.5 9.65454 44.5ZM36.092 44.25C33.7587 44.25 31.842 43.5208 30.342 42.0625C28.8837 40.5625 28.1545 38.0625 28.1545 34.5625V16H32.6545V34.0625C32.6545 36.2708 32.967 37.8542 33.592 38.8125C34.217 39.7708 35.342 40.25 36.967 40.25C38.3837 40.25 39.7795 39.8333 41.1545 39C42.5712 38.125 43.8837 37 45.092 35.625L47.342 37.5625C46.1754 39.3958 44.5504 40.9792 42.467 42.3125C40.4254 43.6042 38.3004 44.25 36.092 44.25ZM44.1545 40V16H48.6545V39.9375L48.7795 44H44.6545L44.1545 40ZM72.4045 39.9375L72.1545 38.9375V4H76.6545V40L76.7795 44H72.967L72.4045 39.9375ZM65.6545 15.5C68.4045 15.5 70.5504 16.25 72.092 17.75C73.6754 19.25 74.717 21.4167 75.217 24.25L73.4045 25.0625C72.9045 23.1042 72.0295 21.6875 70.7795 20.8125C69.5712 19.9375 68.0504 19.5 66.217 19.5C64.717 19.5 63.5295 19.8333 62.6545 20.5C61.7795 21.125 61.1337 22.2083 60.717 23.75C60.342 25.25 60.1545 27.3333 60.1545 30C60.1545 32.7083 60.342 34.8125 60.717 36.3125C61.1337 37.8125 61.7795 38.8958 62.6545 39.5625C63.5295 40.1875 64.717 40.5 66.217 40.5C68.092 40.5 69.6337 40.0625 70.842 39.1875C72.092 38.3125 72.9462 36.875 73.4045 34.875L75.2795 35.6875C74.7795 38.5625 73.7379 40.75 72.1545 42.25C70.6129 43.75 68.467 44.5 65.717 44.5C62.2587 44.5 59.6545 43.1667 57.9045 40.5C56.1545 37.8333 55.2795 34.3333 55.2795 30C55.2795 27.1667 55.6545 24.6667 56.4045 22.5C57.1545 20.3333 58.3004 18.625 59.842 17.375C61.3837 16.125 63.3212 15.5 65.6545 15.5ZM94.4045 44.8125C90.5295 44.8125 87.6962 43.4583 85.9045 40.75C84.1545 38.0417 83.2795 34.4583 83.2795 30C83.2795 25.5417 84.1545 21.9583 85.9045 19.25C87.6962 16.5417 90.5295 15.1875 94.4045 15.1875C98.2795 15.1875 101.092 16.5417 102.842 19.25C104.634 21.9583 105.53 25.5417 105.53 30C105.53 34.4167 104.613 38 102.78 40.75C100.988 43.4583 98.1962 44.8125 94.4045 44.8125ZM94.4045 40.8125C96.6962 40.8125 98.3212 40 99.2795 38.375C100.28 36.75 100.78 33.9583 100.78 30C100.78 26.0833 100.28 23.3125 99.2795 21.6875C98.3212 20.0208 96.6962 19.1875 94.4045 19.1875C92.1129 19.1875 90.467 20.0208 89.467 21.6875C88.5087 23.3125 88.0295 26.0833 88.0295 30C88.0295 33.9583 88.5087 36.75 89.467 38.375C90.467 40 92.1129 40.8125 94.4045 40.8125ZM129.092 48C125.425 47.5417 122.634 46.7083 120.717 45.5C118.842 44.2917 117.905 42.25 117.905 39.375C117.905 38.6667 118.03 37.5625 118.28 36.0625C118.53 34.3958 118.655 33.0417 118.655 32C118.655 30.5 118.238 29.3333 117.405 28.5C116.613 27.625 115.363 27.0417 113.655 26.75V21.25C115.363 20.9583 116.613 20.3958 117.405 19.5625C118.238 18.6875 118.655 17.5 118.655 16C118.655 14.9583 118.53 13.6042 118.28 11.9375C118.196 11.3958 118.113 10.8333 118.03 10.25C117.946 9.66667 117.905 9.125 117.905 8.625C117.905 6.66667 118.363 5.10417 119.28 3.9375C120.238 2.77083 121.509 1.89583 123.092 1.3125C124.675 0.729167 126.675 0.291667 129.092 0L129.717 3.5625C127.759 3.9375 126.238 4.3125 125.155 4.6875C124.113 5.0625 123.342 5.5625 122.842 6.1875C122.384 6.77083 122.155 7.58333 122.155 8.625C122.155 9.16667 122.175 9.6875 122.217 10.1875C122.3 10.6875 122.384 11.2083 122.467 11.75C122.759 13.2917 122.905 14.7083 122.905 16C122.905 18.375 122.405 20.1458 121.405 21.3125C120.405 22.4792 118.863 23.375 116.78 24C118.863 24.625 120.405 25.5208 121.405 26.6875C122.405 27.8542 122.905 29.625 122.905 32C122.905 33.2917 122.759 34.7083 122.467 36.25C122.384 36.7917 122.3 37.3125 122.217 37.8125C122.175 38.3125 122.155 38.8333 122.155 39.375C122.155 40.4167 122.384 41.25 122.842 41.875C123.342 42.4583 124.113 42.9375 125.155 43.3125C126.238 43.6875 127.759 44.0625 129.717 44.4375L129.092 48ZM148.78 20.125L141.03 19.625V16H153.28V44H148.78V20.125ZM147.092 7.0625C147.092 5.9375 147.446 5.04167 148.155 4.375C148.863 3.70833 149.738 3.375 150.78 3.375C151.821 3.375 152.696 3.70833 153.405 4.375C154.113 5.04167 154.467 5.9375 154.467 7.0625C154.467 8.22917 154.113 9.14583 153.405 9.8125C152.696 10.4375 151.821 10.75 150.78 10.75C149.738 10.75 148.863 10.4375 148.155 9.8125C147.446 9.14583 147.092 8.22917 147.092 7.0625ZM168.405 48V44H188.405V48H168.405ZM196.155 4H200.655V44H196.155V4ZM212.155 25.9375C212.155 23.7292 211.842 22.1458 211.217 21.1875C210.592 20.2292 209.467 19.75 207.842 19.75C206.425 19.75 205.009 20.1875 203.592 21.0625C202.217 21.8958 200.925 23 199.717 24.375L197.467 22.4375C198.634 20.6042 200.238 19.0417 202.28 17.75C204.363 16.4167 206.509 15.75 208.717 15.75C211.092 15.75 213.009 16.4792 214.467 17.9375C215.925 19.3958 216.655 21.8958 216.655 25.4375V44H212.155V25.9375ZM239.655 26.1875C239.655 23.7708 239.217 22.1042 238.342 21.1875C237.509 20.2292 236.03 19.75 233.905 19.75C232.738 19.75 231.509 19.9167 230.217 20.25C228.925 20.5417 227.613 20.9375 226.28 21.4375L224.967 17.8125C228.134 16.3958 231.217 15.6875 234.217 15.6875C237.467 15.6875 239.925 16.4583 241.592 18C243.3 19.5417 244.155 21.9792 244.155 25.3125V40L244.405 44H240.155L239.655 40V26.1875ZM241.717 31.125C236.8 31.125 233.321 31.5417 231.28 32.375C229.28 33.2083 228.28 34.5208 228.28 36.3125C228.28 37.5208 228.613 38.4792 229.28 39.1875C229.946 39.8958 230.967 40.25 232.342 40.25C233.55 40.25 234.759 40 235.967 39.5C237.217 39 238.8 38.2292 240.717 37.1875L240.967 37.0625L241.967 40.3125C241.925 40.3125 241.884 40.3333 241.842 40.375C239.8 41.625 238.009 42.5833 236.467 43.25C234.925 43.9167 233.238 44.25 231.405 44.25C229.196 44.25 227.321 43.5833 225.78 42.25C224.28 40.9167 223.53 39.0208 223.53 36.5625C223.53 33.4375 224.946 31.1042 227.78 29.5625C230.613 28.0208 235.259 27.25 241.717 27.25V31.125ZM260.03 8V16H269.905V20H260.03V35.6875C260.03 37.1042 260.363 38.25 261.03 39.125C261.738 40 262.925 40.4375 264.592 40.4375C266.384 40.4375 268.259 40.2708 270.217 39.9375L270.78 43.875C268.53 44.2917 266.384 44.5 264.342 44.5C261.467 44.5 259.28 43.7708 257.78 42.3125C256.28 40.8125 255.53 38.4792 255.53 35.3125V20.0625L250.842 19.8125V16H255.53V8H260.03ZM279.53 30C279.53 25.5417 280.384 21.9583 282.092 19.25C283.842 16.5417 286.613 15.1875 290.405 15.1875C292.905 15.1875 294.988 15.8542 296.655 17.1875C298.363 18.4792 299.592 20.3542 300.342 22.8125C301.092 25.2292 301.342 28.1042 301.092 31.4375H282.155V27.5625H298.905L296.405 30C296.571 26.2917 296.155 23.5625 295.155 21.8125C294.196 20.0625 292.613 19.1875 290.405 19.1875C288.238 19.1875 286.675 20.0208 285.717 21.6875C284.759 23.3125 284.28 26.0833 284.28 30C284.28 32.75 284.509 34.8958 284.967 36.4375C285.467 37.9792 286.238 39.1042 287.28 39.8125C288.363 40.4792 289.863 40.8125 291.78 40.8125C292.946 40.8125 294.092 40.6875 295.217 40.4375C296.384 40.1875 297.634 39.8333 298.967 39.375L299.842 43C297.134 44.2083 294.363 44.8125 291.53 44.8125C287.238 44.8125 284.155 43.4792 282.28 40.8125C280.446 38.1042 279.53 34.5 279.53 30ZM308.405 48V44H328.405V48H308.405ZM348.655 46.8125C348.655 50.2708 347.842 52.75 346.217 54.25C344.592 55.75 342.3 56.5 339.342 56.5C337.8 56.5 336.113 56.375 334.28 56.125L334.655 52.5C336.321 52.6667 337.759 52.75 338.967 52.75C340.884 52.75 342.217 52.2917 342.967 51.375C343.759 50.4583 344.155 49.0208 344.155 47.0625V20.125L336.405 19.625V16H348.655V46.8125ZM342.467 7.0625C342.467 5.9375 342.821 5.04167 343.53 4.375C344.238 3.70833 345.113 3.375 346.155 3.375C347.196 3.375 348.071 3.70833 348.78 4.375C349.488 5.04167 349.842 5.9375 349.842 7.0625C349.842 8.22917 349.488 9.14583 348.78 9.8125C348.071 10.4375 347.196 10.75 346.155 10.75C345.113 10.75 344.238 10.4375 343.53 9.8125C342.821 9.14583 342.467 8.22917 342.467 7.0625ZM379.655 26.1875C379.655 23.7708 379.217 22.1042 378.342 21.1875C377.509 20.2292 376.03 19.75 373.905 19.75C372.738 19.75 371.509 19.9167 370.217 20.25C368.925 20.5417 367.613 20.9375 366.28 21.4375L364.967 17.8125C368.134 16.3958 371.217 15.6875 374.217 15.6875C377.467 15.6875 379.925 16.4583 381.592 18C383.3 19.5417 384.155 21.9792 384.155 25.3125V40L384.405 44H380.155L379.655 40V26.1875ZM381.717 31.125C376.8 31.125 373.321 31.5417 371.28 32.375C369.28 33.2083 368.28 34.5208 368.28 36.3125C368.28 37.5208 368.613 38.4792 369.28 39.1875C369.946 39.8958 370.967 40.25 372.342 40.25C373.55 40.25 374.759 40 375.967 39.5C377.217 39 378.8 38.2292 380.717 37.1875L380.967 37.0625L381.967 40.3125C381.925 40.3125 381.884 40.3333 381.842 40.375C379.8 41.625 378.009 42.5833 376.467 43.25C374.925 43.9167 373.238 44.25 371.405 44.25C369.196 44.25 367.321 43.5833 365.78 42.25C364.28 40.9167 363.53 39.0208 363.53 36.5625C363.53 33.4375 364.946 31.1042 367.78 29.5625C370.613 28.0208 375.259 27.25 381.717 27.25V31.125ZM411.467 41.875C410.675 46.1667 409.009 49.4583 406.467 51.75C403.967 54.0417 400.28 55.6042 395.405 56.4375L394.467 52.5625C397.55 52.0208 399.925 51.2292 401.592 50.1875C403.3 49.1458 404.53 47.9167 405.28 46.5C406.03 45.125 406.613 43.3542 407.03 41.1875C407.571 38.4375 407.905 35.2708 408.03 31.6875C408.196 28.1042 408.28 22.875 408.28 16H412.78C412.78 23.2917 412.675 28.7917 412.467 32.5C412.259 36.2083 411.925 39.3333 411.467 41.875ZM394.842 16C395.592 22.875 396.405 27.8333 397.28 30.875C398.155 33.875 399.425 35.9792 401.092 37.1875C402.759 38.3542 405.446 39.2083 409.155 39.75L408.467 43.625C403.759 43.1667 400.238 41.9792 397.905 40.0625C395.613 38.1458 393.988 35.4375 393.03 31.9375C392.071 28.4375 391.196 23.125 390.405 16H394.842ZM420.405 48V44H440.405V48H420.405ZM448.155 20L448.03 16H451.842L452.405 20.0625L452.655 21.0625V56H448.155V20ZM459.155 44.5C456.405 44.5 454.238 43.75 452.655 42.25C451.113 40.75 450.092 38.5833 449.592 35.75L451.405 34.9375C451.905 36.8958 452.759 38.3125 453.967 39.1875C455.217 40.0625 456.759 40.5 458.592 40.5C460.092 40.5 461.28 40.1875 462.155 39.5625C463.03 38.8958 463.655 37.8125 464.03 36.3125C464.446 34.7708 464.655 32.6667 464.655 30C464.655 27.2917 464.446 25.1875 464.03 23.6875C463.655 22.1875 463.03 21.125 462.155 20.5C461.28 19.8333 460.092 19.5 458.592 19.5C456.717 19.5 455.155 19.9375 453.905 20.8125C452.696 21.6875 451.863 23.125 451.405 25.125L449.53 24.3125C450.03 21.4375 451.05 19.25 452.592 17.75C454.175 16.25 456.342 15.5 459.092 15.5C462.55 15.5 465.155 16.8333 466.905 19.5C468.655 22.1667 469.53 25.6667 469.53 30C469.53 32.8333 469.155 35.3333 468.405 37.5C467.655 39.6667 466.509 41.375 464.967 42.625C463.425 43.875 461.488 44.5 459.155 44.5ZM491.655 26.1875C491.655 23.7708 491.217 22.1042 490.342 21.1875C489.509 20.2292 488.03 19.75 485.905 19.75C484.738 19.75 483.509 19.9167 482.217 20.25C480.925 20.5417 479.613 20.9375 478.28 21.4375L476.967 17.8125C480.134 16.3958 483.217 15.6875 486.217 15.6875C489.467 15.6875 491.925 16.4583 493.592 18C495.3 19.5417 496.155 21.9792 496.155 25.3125V40L496.405 44H492.155L491.655 40V26.1875ZM493.717 31.125C488.8 31.125 485.321 31.5417 483.28 32.375C481.28 33.2083 480.28 34.5208 480.28 36.3125C480.28 37.5208 480.613 38.4792 481.28 39.1875C481.946 39.8958 482.967 40.25 484.342 40.25C485.55 40.25 486.759 40 487.967 39.5C489.217 39 490.8 38.2292 492.717 37.1875L492.967 37.0625L493.967 40.3125C493.925 40.3125 493.884 40.3333 493.842 40.375C491.8 41.625 490.009 42.5833 488.467 43.25C486.925 43.9167 485.238 44.25 483.405 44.25C481.196 44.25 479.321 43.5833 477.78 42.25C476.28 40.9167 475.53 39.0208 475.53 36.5625C475.53 33.4375 476.946 31.1042 479.78 29.5625C482.613 28.0208 487.259 27.25 493.717 27.25V31.125ZM521.967 20.5C519.717 19.875 517.571 19.5625 515.53 19.5625C513.696 19.5625 512.259 19.8958 511.217 20.5625C510.175 21.2292 509.425 22.3125 508.967 23.8125C508.509 25.2708 508.28 27.3333 508.28 30C508.28 32.6667 508.509 34.75 508.967 36.25C509.425 37.7083 510.175 38.7708 511.217 39.4375C512.259 40.1042 513.696 40.4375 515.53 40.4375C517.571 40.4375 519.717 40.125 521.967 39.5L522.78 43.25C520.446 44.0417 517.946 44.4375 515.28 44.4375C511.071 44.4375 508.05 43.1458 506.217 40.5625C504.425 37.9375 503.53 34.4167 503.53 30C503.53 25.5833 504.425 22.0833 506.217 19.5C508.05 16.875 511.071 15.5625 515.28 15.5625C517.946 15.5625 520.446 15.9583 522.78 16.75L521.967 20.5ZM542.03 31H536.655V44H532.155V4H536.655V27H542.03V31ZM553.905 16L541.78 29.875V28.1875L554.655 44H548.655L537.03 29.125L547.967 16H553.905ZM563.092 44.4375C565.05 44.0625 566.55 43.6875 567.592 43.3125C568.675 42.9375 569.446 42.4583 569.905 41.875C570.405 41.25 570.655 40.4167 570.655 39.375C570.655 38.8333 570.613 38.3125 570.53 37.8125C570.488 37.3125 570.425 36.7917 570.342 36.25C570.05 34.7083 569.905 33.2917 569.905 32C569.905 29.625 570.405 27.8542 571.405 26.6875C572.405 25.5208 573.946 24.625 576.03 24C573.946 23.375 572.405 22.4792 571.405 21.3125C570.405 20.1458 569.905 18.375 569.905 16C569.905 14.7083 570.05 13.2917 570.342 11.75C570.425 11.2083 570.488 10.6875 570.53 10.1875C570.613 9.6875 570.655 9.16667 570.655 8.625C570.655 7.58333 570.405 6.77083 569.905 6.1875C569.446 5.5625 568.675 5.0625 567.592 4.6875C566.55 4.3125 565.05 3.9375 563.092 3.5625L563.717 0C567.384 0.458333 570.155 1.29167 572.03 2.5C573.946 3.70833 574.905 5.75 574.905 8.625C574.905 9.33333 574.78 10.4375 574.53 11.9375C574.28 13.6042 574.155 14.9583 574.155 16C574.155 17.5 574.55 18.6875 575.342 19.5625C576.175 20.3958 577.446 20.9583 579.155 21.25V26.75C577.446 27.0417 576.175 27.625 575.342 28.5C574.55 29.3333 574.155 30.5 574.155 32C574.155 33.0417 574.28 34.3958 574.53 36.0625C574.613 36.6042 574.696 37.1667 574.78 37.75C574.863 38.3333 574.905 38.875 574.905 39.375C574.905 41.3333 574.425 42.8958 573.467 44.0625C572.55 45.2292 571.3 46.1042 569.717 46.6875C568.134 47.2708 566.134 47.7083 563.717 48L563.092 44.4375Z" fill="#000000"/>
</svg>
